<svg xmlns="http://www.w3.org/2000/svg" xmlns:xlink="http://www.w3.org/1999/xlink" width="336" zoomAndPan="magnify" viewBox="0 0 252 64.499998" height="86" preserveAspectRatio="xMidYMid meet" version="1.0"><defs><g/><clipPath id="967b396838"><path d="M 15.074219 7.101562 L 64.707031 7.101562 L 64.707031 56.734375 L 15.074219 56.734375 Z M 15.074219 7.101562 " clip-rule="nonzero"/></clipPath></defs><g clip-path="url(#967b396838)"><path fill="#000000" d="M 25.878906 34.347656 C 25.878906 33.5625 26.828125 33.171875 27.382812 33.722656 L 27.933594 34.273438 L 31.660156 38.003906 C 31.992188 38.332031 32.003906 38.863281 31.699219 39.207031 C 31.6875 39.222656 31.675781 39.234375 31.660156 39.246094 L 27.382812 43.527344 C 26.828125 44.082031 25.878906 43.6875 25.878906 42.90625 L 25.878906 34.347656 M 29.285156 56.894531 L 52.457031 33.722656 C 53.007812 33.171875 53.957031 33.5625 53.957031 34.347656 L 53.957031 56.894531 L 64.753906 56.894531 L 64.753906 8.277344 C 64.753906 7.492188 63.808594 7.101562 63.253906 7.652344 L 40.539062 30.367188 C 40.527344 30.378906 40.519531 30.390625 40.507812 30.398438 L 40.507812 30.402344 C 40.160156 30.710938 39.628906 30.699219 39.296875 30.367188 L 16.582031 7.652344 C 16.027344 7.101562 15.082031 7.492188 15.082031 8.277344 L 15.082031 56.894531 L 29.285156 56.894531 " fill-opacity="1" fill-rule="nonzero"/></g><path fill="#000000" d="M 31.851562 38.285156 C 31.808594 38.183594 31.746094 38.085938 31.660156 38.003906 L 27.933594 34.273438 L 31.660156 38.003906 C 31.746094 38.085938 31.808594 38.183594 31.851562 38.285156 M 39.917969 30.625 C 39.921875 30.625 39.921875 30.625 39.925781 30.625 C 39.921875 30.625 39.921875 30.625 39.917969 30.625 M 39.914062 30.625 C 39.691406 30.625 39.46875 30.539062 39.296875 30.367188 C 39.46875 30.539062 39.691406 30.625 39.914062 30.625 M 40.425781 30.464844 C 40.453125 30.445312 40.480469 30.421875 40.507812 30.402344 C 40.480469 30.421875 40.453125 30.445312 40.425781 30.464844 " fill-opacity="1" fill-rule="nonzero"/><path fill="#000000" d="M 31.699219 39.207031 C 31.925781 38.949219 31.976562 38.589844 31.851562 38.285156 C 31.808594 38.183594 31.746094 38.085938 31.660156 38.003906 L 27.933594 34.273438 L 35.570312 26.640625 L 39.296875 30.367188 C 39.46875 30.539062 39.691406 30.625 39.914062 30.625 C 39.917969 30.625 39.917969 30.625 39.917969 30.625 C 39.921875 30.625 39.921875 30.625 39.925781 30.625 C 40.101562 30.625 40.277344 30.570312 40.425781 30.464844 C 40.453125 30.445312 40.480469 30.421875 40.507812 30.402344 L 31.699219 39.207031 " fill-opacity="1" fill-rule="nonzero"/><g fill="#000000" fill-opacity="1"><g transform="translate(65.000011, 53.142049)"><g><path d="M 25.25 0.453125 C 21.019531 0.453125 17.140625 -0.53125 13.609375 -2.5 C 10.085938 -4.46875 7.289062 -7.210938 5.21875 -10.734375 C 3.144531 -14.265625 2.109375 -18.226562 2.109375 -22.625 C 2.109375 -27.03125 3.144531 -30.984375 5.21875 -34.484375 C 7.289062 -37.984375 10.085938 -40.71875 13.609375 -42.6875 C 17.140625 -44.65625 21.019531 -45.640625 25.25 -45.640625 C 29.476562 -45.640625 33.351562 -44.65625 36.875 -42.6875 C 40.40625 -40.71875 43.1875 -37.984375 45.21875 -34.484375 C 47.25 -30.984375 48.265625 -27.03125 48.265625 -22.625 C 48.265625 -18.226562 47.238281 -14.265625 45.1875 -10.734375 C 43.132812 -7.210938 40.351562 -4.46875 36.84375 -2.5 C 33.34375 -0.53125 29.476562 0.453125 25.25 0.453125 Z M 25.25 -9.546875 C 28.84375 -9.546875 31.71875 -10.742188 33.875 -13.140625 C 36.03125 -15.535156 37.109375 -18.695312 37.109375 -22.625 C 37.109375 -26.59375 36.03125 -29.765625 33.875 -32.140625 C 31.71875 -34.515625 28.84375 -35.703125 25.25 -35.703125 C 21.625 -35.703125 18.726562 -34.523438 16.5625 -32.171875 C 14.40625 -29.828125 13.328125 -26.644531 13.328125 -22.625 C 13.328125 -18.65625 14.40625 -15.484375 16.5625 -13.109375 C 18.726562 -10.734375 21.625 -9.546875 25.25 -9.546875 Z M 25.25 -9.546875 "/></g></g></g><g fill="#000000" fill-opacity="1"><g transform="translate(115.367744, 53.142049)"><g><path d="M 26.921875 0 L 17.5625 -16.984375 L 14.9375 -16.984375 L 14.9375 0 L 3.96875 0 L 3.96875 -45 L 22.375 -45 C 25.914062 -45 28.9375 -44.378906 31.4375 -43.140625 C 33.9375 -41.898438 35.804688 -40.195312 37.046875 -38.03125 C 38.285156 -35.875 38.90625 -33.472656 38.90625 -30.828125 C 38.90625 -27.835938 38.0625 -25.164062 36.375 -22.8125 C 34.6875 -20.46875 32.195312 -18.800781 28.90625 -17.8125 L 39.296875 0 Z M 14.9375 -24.734375 L 21.734375 -24.734375 C 23.734375 -24.734375 25.234375 -25.222656 26.234375 -26.203125 C 27.242188 -27.191406 27.75 -28.582031 27.75 -30.375 C 27.75 -32.082031 27.242188 -33.425781 26.234375 -34.40625 C 25.234375 -35.394531 23.734375 -35.890625 21.734375 -35.890625 L 14.9375 -35.890625 Z M 14.9375 -24.734375 "/></g></g></g><g fill="#000000" fill-opacity="1"><g transform="translate(157.148614, 53.142049)"><g><path d="M 38.265625 -30.515625 C 38.265625 -27.898438 37.664062 -25.515625 36.46875 -23.359375 C 35.269531 -21.203125 33.429688 -19.460938 30.953125 -18.140625 C 28.472656 -16.816406 25.398438 -16.15625 21.734375 -16.15625 L 14.9375 -16.15625 L 14.9375 0 L 3.96875 0 L 3.96875 -45 L 21.734375 -45 C 25.316406 -45 28.347656 -44.378906 30.828125 -43.140625 C 33.304688 -41.898438 35.164062 -40.1875 36.40625 -38 C 37.644531 -35.820312 38.265625 -33.328125 38.265625 -30.515625 Z M 20.890625 -24.875 C 22.984375 -24.875 24.539062 -25.363281 25.5625 -26.34375 C 26.59375 -27.320312 27.109375 -28.710938 27.109375 -30.515625 C 27.109375 -32.304688 26.59375 -33.691406 25.5625 -34.671875 C 24.539062 -35.660156 22.984375 -36.15625 20.890625 -36.15625 L 14.9375 -36.15625 L 14.9375 -24.875 Z M 20.890625 -24.875 "/></g></g></g><g fill="#000000" fill-opacity="1"><g transform="translate(197.135221, 53.142049)"><g><path d="M 42.9375 -45 L 42.9375 0 L 31.984375 0 L 31.984375 -18.515625 L 14.9375 -18.515625 L 14.9375 0 L 3.96875 0 L 3.96875 -45 L 14.9375 -45 L 14.9375 -27.375 L 31.984375 -27.375 L 31.984375 -45 Z M 42.9375 -45 "/></g></g></g></svg>